<svg xmlns="http://www.w3.org/2000/svg" xml:space="preserve" width="30" fill="#810909" viewBox="0 0 187.035 187.034"><path d="M187.035 67.531c0 5.724-.926 11.502-2.765 17.135-8.756 39.567-84.262 87.355-87.474 89.377-.989.627-2.144.949-3.279.949s-2.29-.334-3.279-.949c-3.224-1.991-78.745-49.81-87.681-89.958C.929 79.152 0 73.368 0 67.531a55.532 55.532 0 0 1 28.708-48.634c17.278-9.542 39.028-8.917 55.521 1.06 2.923 1.739 3.852 5.542 2.077 8.449-1.742 2.923-5.575 3.791-8.452 2.083-12.769-7.675-29.728-8.168-43.19-.78-13.755 7.587-22.305 22.067-22.305 37.811 0 4.545.682 9.033 2.11 13.28 6.321 28.278 56.398 65.916 79.074 80.694 22.651-14.778 72.723-52.386 78.867-80.094 1.595-4.978 2.313-9.466 2.313-13.893a43.213 43.213 0 0 0-22.348-37.851c-13.798-7.526-30.799-6.981-44 1.422-2.861 1.708-6.674.962-8.524-1.899-1.8-2.862-.953-6.686 1.912-8.525 16.854-10.781 38.788-11.505 56.544-1.802 17.706 9.815 28.728 28.445 28.728 48.679zM160.839 80.2c.328.131.633.152.962.152a3.086 3.086 0 0 0 2.923-2.109 34.048 34.048 0 0 0 1.741-10.723c0-12.739-6.924-24.481-18.061-30.592-5.212-2.923-10.899-4.396-16.928-4.396-1.705 0-3.069 1.355-3.069 3.069s1.364 3.075 3.069 3.075c4.938 0 9.633 1.221 13.944 3.641 9.183 5.063 14.906 14.714 14.906 25.203 0 2.953-.487 5.891-1.438 8.792a3.027 3.027 0 0 0 1.951 3.888z"/></svg>